<svg version="1.1" id="Layer_2" xmlns="http://www.w3.org/2000/svg" xmlns:xlink="http://www.w3.org/1999/xlink" x="0px" y="0px" viewBox="0 0 402 375" style="enable-background:new 0 0 402 375;" xml:space="preserve">
<style type="text/css">
.st0{fill:#ffffff;}
</style>
<path class="st0" d="M167.4,79.7h-4.6c-0.3,0-0.6-0.3-0.6-0.6l0,0v-3.5c0-0.3,0.3-0.6,0.6-0.6l0,0h14.3c0.3,0,0.6,0.3,0.6,0.6l0,0
v3.5c0,0.3-0.3,0.6-0.6,0.6l0,0h-4.6v17.2c0,0.3-0.3,0.6-0.6,0.6h-3.9c-0.3,0-0.6-0.3-0.6-0.6L167.4,79.7z"></path>
<path class="st0" d="M190.6,75.6c0-0.3,0.3-0.6,0.6-0.6h3.8c0.3,0,0.6,0.3,0.6,0.6l0,0v8.1h9.2v-8.1c0-0.3,0.3-0.6,0.6-0.6l0,0h3.8
c0.3,0,0.6,0.3,0.6,0.6v21.3c0,0.3-0.3,0.6-0.6,0.6h-3.8c-0.3,0-0.6-0.3-0.6-0.6l0,0v-8.4h-9.2v8.4c0,0.3-0.3,0.6-0.6,0.6l0,0h-3.8
c-0.3,0-0.6-0.3-0.6-0.6L190.6,75.6z"></path>
<path class="st0" d="M225.2,75.6c0-0.3,0.3-0.6,0.6-0.6l0,0h13.3c0.3,0,0.6,0.3,0.6,0.6l0,0v3.5c0,0.3-0.3,0.6-0.6,0.6l0,0h-8.9v4
h7.3c0.3,0,0.6,0.3,0.6,0.6v3.5c0,0.3-0.3,0.6-0.6,0.6l0,0h-7.3v4.3h8.9c0.3,0,0.6,0.3,0.6,0.6l0,0v3.5c0,0.3-0.3,0.6-0.6,0.6l0,0
h-13.3c-0.3,0-0.6-0.3-0.6-0.6l0,0V75.6z"></path>
<path class="st0" d="M40.8,180.6c13.1,12.9,23.1,23.9,23.1,41.4c0,19.8-12.9,32.3-31.5,32.3C13,254.3,1,240.7,1,221.8v-13.2h19.6
v11.7c0,9.9,3.4,15.6,11.7,15.6c5.7,0,11.3-2.6,11.3-12.2c0-11.8-8.8-19.8-19.6-30c-10.6-10.2-22.1-21.9-22.1-40.1
c0-16.2,9-30.9,30.6-30.9c18.5,0,29.9,10.8,29.9,34.6v8.1H42.7v-7.1c0-12.9-3.5-17.5-10.2-17.5c-7.1,0-10.2,5.3-10.2,11.8
C22.2,162.5,29.6,169.7,40.8,180.6z"></path>
<path class="st0" d="M166.1,214l14.1-89.4h21.2l-24.7,127.6h-21.2l-24.7-127.5h21.2L166.1,214z"></path>
<path class="st0" d="M90.6,124.7h24.9l22.3,127.5h-20.3l-3.7-26.5H92.4l-3.7,26.5H68.4L90.6,124.7z M95.2,207.5H111l-7.8-52.6
L95.2,207.5z"></path>
<path class="st0" d="M216.6,124.7h24.9l22.3,127.5h-20.3l-3.7-26.5h-21.4l-3.7,26.5h-20.3L216.6,124.7z M221.2,207.5h15.7l-7.8-52.6
L221.2,207.5z"></path>
<path class="st0" d="M332.1,169.2h-20.5v-16.2c0-7.1-2.8-11.7-10.1-11.7c-7.4,0-10.6,4.6-10.6,12.2v69.6c0,7.8,3.4,12.2,10.8,12.2
c7.8,0,11.3-4.9,11.3-13.4v-17.5h-12.5v-16.4h32.7v64.3h-9.5l-3.4-9c-6.2,8.7-13.6,11.1-21.7,11.1c-19.3,0-28.8-14-28.8-32.2V154
c0-19.1,12.7-31.4,31.8-31.4c18.9,0,30.6,12,30.6,30.9L332.1,169.2z"></path>
<path class="st0" d="M366,177.3h24.7v17.8H366v38.2h35v18.9h-56V124.7h54.6v18.5H366V177.3z"></path>
<path class="st0" d="M115.1,279.4c0-0.3,0.3-0.6,0.6-0.6h7.5c3.8,0,6.9,2.6,6.9,6c0,2.5-2.2,4.3-3.7,5.1c1.7,0.7,4.3,2.3,4.3,5.2
c0,3.6-3.2,6.2-7,6.2h-8c-0.3,0-0.6-0.3-0.6-0.6L115.1,279.4z M122.6,287.9c1.3,0,2.3-1.1,2.2-2.3c0-1.2-1-2.2-2.2-2.2
c0,0,0,0-0.1,0h-2.5v4.5H122.6z M123,296.6c1.3,0,2.3-1.1,2.3-2.3c-0.2-1.3-1.3-2.3-2.6-2.2h-2.6v4.6H123z"></path>
<path class="st0" d="M144.4,279.4c0-0.3,0.3-0.6,0.6-0.6h4c0.3,0,0.6,0.3,0.6,0.6v13c0,2.2,1.8,4,4,4s4-1.8,4-4v-13
c0-0.3,0.3-0.6,0.6-0.6h3.9c0.3,0,0.6,0.3,0.6,0.6v13.3c0,5.1-4.1,9.1-9.1,9.1c-5.1,0-9.2-4.1-9.2-9.1L144.4,279.4z"></path>
<path class="st0" d="M177.8,279.4c0-0.3,0.3-0.6,0.6-0.6h9.6c3.8-0.1,6.9,2.9,7,6.7c0.1,3-1.9,5.8-4.8,6.7l4.4,8.2
c0.2,0.3,0.1,0.7-0.2,0.8c-0.1,0.1-0.2,0.1-0.4,0.1h-4.3c-0.2,0-0.4-0.1-0.5-0.3l-4.3-8.5h-2.2v8.2c0,0.3-0.3,0.6-0.6,0.6h-3.8
c-0.3,0-0.6-0.3-0.6-0.6L177.8,279.4z M187.6,288.4c1.4-0.1,2.4-1.2,2.4-2.6c0-1.3-1.1-2.4-2.4-2.4h-4.8v5L187.6,288.4z"></path>
<path class="st0" d="M209.3,279.4c0-0.3,0.3-0.6,0.6-0.6h13.3c0.3,0,0.6,0.3,0.6,0.6v3.5c0,0.3-0.3,0.6-0.6,0.6h-8.9v4h7.3
c0.3,0,0.6,0.3,0.6,0.6v3.5c0,0.3-0.3,0.6-0.6,0.6h-7.3v4.3h8.9c0.3,0,0.6,0.3,0.6,0.6v3.5c0,0.3-0.3,0.6-0.6,0.6h-13.3
c-0.3,0-0.6-0.3-0.6-0.6V279.4z"></path>
<path class="st0" d="M235.8,300.4l10.1-21.6c0.1-0.2,0.3-0.3,0.6-0.4h0.3c0.2,0,0.4,0.1,0.6,0.4l10,21.6c0.1,0.3,0,0.6-0.2,0.8
c-0.1,0-0.2,0.1-0.3,0.1h-3.6c-0.6,0-0.8-0.2-1.1-0.8l-1.2-2.5h-8.7l-1.2,2.6c-0.2,0.5-0.6,0.8-1.2,0.8h-3.5c-0.3,0-0.6-0.3-0.6-0.6
C235.8,300.6,235.8,300.5,235.8,300.4z M249,293.5l-2.4-5.3l0,0l-2.4,5.3H249z"></path>
<path class="st0" d="M268.6,279.4c0-0.3,0.3-0.6,0.6-0.6h4c0.3,0,0.6,0.3,0.6,0.6v13c0,2.2,1.8,4,4,4s4-1.8,4-4v-13
c0-0.3,0.3-0.6,0.6-0.6h4c0.3,0,0.6,0.3,0.6,0.6v13.3c0,5.1-4.1,9.1-9.2,9.1c-5,0-9.1-4.1-9.1-9.1L268.6,279.4z"></path>
<rect x="261" y="79.5" class="st0" width="63" height="3"></rect>
<rect x="261" y="89.5" class="st0" width="101" height="3"></rect>
<rect x="77" y="79.5" class="st0" width="63" height="3"></rect>
<rect x="39" y="89.5" class="st0" width="101" height="3"></rect>
<path class="st0" d="M51.7,291.6l1.3-0.9c0.1-0.1,0.2-0.1,0.3,0c0,0,0,0,0,0l3.2,4.5c0.1,0.1,0.1,0.2,0,0.3c0,0,0,0,0,0l-1.3,0.9
c-0.1,0.1-0.2,0.1-0.3,0c0,0,0,0,0,0l-3.2-4.5C51.6,291.8,51.6,291.7,51.7,291.6C51.6,291.6,51.6,291.6,51.7,291.6z"></path>
<path class="st0" d="M66.4,314.6c0-0.1,0.1-0.2,0.2-0.2l1.9-0.1c0.1,0,0.2,0,0.2,0.1c0,0,0,0,0,0c0.1,1.3,0.7,2.6,1.6,3.6
c1.1,1.1,2.4,1.2,3.2,0.4s0.7-1.6-0.4-3.1l-0.4-0.6c-1.6-2.1-1.7-4-0.1-5.6s4.2-1.6,6.2,0.4c1.1,1.1,1.9,2.5,2.1,4.1
c0,0.1,0,0.2-0.1,0.2c0,0,0,0,0,0l-1.7,0.4c-0.1,0-0.2,0-0.2-0.2c0,0,0,0,0,0c-0.2-1.1-0.7-2.2-1.5-3c-0.6-0.8-1.8-1-2.6-0.4
c-0.1,0.1-0.1,0.1-0.2,0.2c-0.7,0.7-0.7,1.6,0.4,3.1l0.4,0.6c1.6,2.1,1.7,4,0.1,5.7s-4.2,1.7-6.6-0.7
C67.3,318.1,66.5,316.4,66.4,314.6z"></path>
<path class="st0" d="M91.4,321.8c0.1-0.1,0.2-0.1,0.3,0l1.4,1.2c0.1,0.1,0.1,0.2,0.1,0.3l-4.8,13.1c0,0.1-0.1,0.2-0.2,0.1l-1.5-1.2
c-0.1-0.1-0.1-0.2-0.1-0.3l1-2.6l-4-3.2l-2.4,1.5c-0.1,0.1-0.2,0.1-0.3,0l-1.5-1.2c-0.1-0.1-0.1-0.2,0-0.2L91.4,321.8z M88.4,330.2
l1.9-5.2l0,0l-4.7,3L88.4,330.2z"></path>
<path class="st0" d="M103.9,331.3c0.1-0.1,0.2-0.1,0.3-0.1c0,0,0,0,0,0l1.6,1c0.1,0.1,0.2,0.2,0.2,0.4l-0.4,10.9h0.1l5.1-7.9
c0.1-0.1,0.2-0.1,0.3-0.1c0,0,0,0,0,0l1.5,0.9c0.1,0.1,0.1,0.2,0.1,0.3c0,0,0,0,0,0l-7.1,11.1c-0.1,0.1-0.2,0.1-0.3,0.1c0,0,0,0,0,0
l-1.5-1c-0.1-0.1-0.2-0.2-0.2-0.4l0.3-10.9h-0.1l-5,7.9c-0.1,0.1-0.2,0.1-0.3,0.1c0,0,0,0,0,0l-1.5-0.9c-0.1-0.1-0.1-0.2-0.1-0.3
c0,0,0,0,0,0L103.9,331.3z"></path>
<path class="st0" d="M131.1,346.4c0-0.1,0.1-0.2,0.2-0.1c0,0,0,0,0,0l7.9,3.3c0.1,0,0.2,0.1,0.1,0.2c0,0,0,0,0,0l-0.7,1.6
c0,0.1-0.1,0.2-0.2,0.1c0,0,0,0,0,0l-5.8-2.4c-0.1,0-0.1,0-0.2,0c0,0,0,0,0,0l-1.3,3.2c0,0.1,0,0.1,0,0.2c0,0,0,0,0,0l4.9,2
c0.1,0,0.2,0.1,0.1,0.2c0,0,0,0,0,0l-0.7,1.6c0,0.1-0.1,0.2-0.2,0.1c0,0,0,0,0,0l-4.9-2c-0.1,0-0.1,0-0.2,0c0,0,0,0,0,0l-2,4.9
c0,0.1-0.1,0.2-0.2,0.1c0,0,0,0,0,0l-1.8-0.8c-0.1,0-0.2-0.1-0.1-0.2c0,0,0,0,0,0L131.1,346.4z"></path>
<path class="st0" d="M151.5,367.8c-0.1,0-0.2-0.1-0.2-0.3l-1-5.8L148,361c-0.1,0-0.1,0-0.1,0.1c0,0,0,0,0,0l-1.5,5
c0,0.1-0.1,0.2-0.2,0.1c0,0,0,0,0,0l-1.9-0.5c-0.1,0-0.2-0.1-0.1-0.2c0,0,0,0,0,0l3.7-12.7c0-0.1,0.1-0.2,0.2-0.1c0,0,0,0,0,0l5,1.5
c2.2,0.5,3.6,2.6,3.1,4.8c0,0.1,0,0.2-0.1,0.3c-0.4,1.6-1.9,2.8-3.5,2.9l1.2,6.1c0,0.2-0.1,0.2-0.2,0.2L151.5,367.8z M153.9,358.6
c0.3-1-0.2-2.1-1.2-2.4c-0.1,0-0.1,0-0.2-0.1l-2.8-0.8c-0.1,0-0.1,0-0.1,0.1c0,0,0,0,0,0l-1,3.5c0,0.1,0,0.1,0.1,0.1c0,0,0,0,0,0
l2.8,0.8c1,0.4,2.1-0.1,2.5-1.1C153.9,358.7,153.9,358.6,153.9,358.6z"></path>
<path class="st0" d="M170.4,358.3c0-0.1,0.2-0.2,0.3-0.1l1.8,0.3c0.1,0,0.2,0.1,0.2,0.2l2.3,13.8c0,0.1,0,0.2-0.2,0.2l-1.9-0.3
c-0.1,0-0.2-0.1-0.2-0.2l-0.4-2.8l-5-0.9l-1.3,2.5c0,0.1-0.2,0.2-0.3,0.1l-1.9-0.3c-0.1,0-0.2-0.1-0.1-0.2L170.4,358.3z
 M171.9,367.2l-0.9-5.5h-0.1l-2.7,4.9L171.9,367.2z"></path>
<path class="st0" d="M186,360.5c0-0.1,0.1-0.2,0.2-0.2c0,0,0,0,0,0l1.8,0.1c0.1,0,0.3,0.1,0.3,0.2l5,9.7h0.1l0.5-9.4
c0-0.1,0.1-0.2,0.2-0.2c0,0,0,0,0,0l1.7,0.1c0.1,0,0.2,0.1,0.2,0.2c0,0,0,0,0,0l-0.8,13.2c0,0.1-0.1,0.2-0.2,0.2c0,0,0,0,0,0
l-1.8-0.1c-0.1,0-0.3-0.1-0.3-0.2l-5-9.7h-0.1l-0.5,9.4c0,0.1-0.1,0.2-0.2,0.2c0,0,0,0,0,0l-1.7-0.1c-0.1,0-0.2-0.1-0.2-0.2
c0,0,0,0,0,0L186,360.5z"></path>
<path class="st0" d="M205.8,367.6c-0.2-1.2-0.1-2.5,0.2-3.7c0.5-2.1,2.4-3.6,4.5-3.6c2-0.2,3.9,0.9,4.7,2.6c0,0.1,0,0.2-0.1,0.2
c0,0,0,0,0,0l-1.7,0.9c-0.1,0.1-0.2,0-0.2-0.1c0,0,0,0,0,0c-0.4-1-1.5-1.7-2.6-1.6c-1.1,0-2.1,0.8-2.3,1.9c-0.2,2.1-0.1,4.2,0.3,6.2
c0.3,1.1,1.4,1.8,2.5,1.7c1.1-0.1,2.1-0.8,2.4-1.9c0-0.1,0.1-0.1,0.2-0.1c0,0,0,0,0,0l1.7,0.7c0.1,0,0.1,0.1,0.1,0.2c0,0,0,0,0,0
c-0.7,1.9-2.4,3.1-4.4,3.2c-2.2,0.3-4.2-1-4.9-3.1C205.9,370.1,205.7,368.9,205.8,367.6z"></path>
<path class="st0" d="M223.8,359.5c0-0.1,0-0.2,0.1-0.2c0,0,0,0,0,0l1.9-0.3c0.1,0,0.2,0,0.2,0.1c0,0,0,0,0,0l1.9,13.1
c0,0.1,0,0.2-0.1,0.2c0,0,0,0,0,0l-1.9,0.3c-0.1,0-0.2,0-0.2-0.1c0,0,0,0,0,0L223.8,359.5z"></path>
<path class="st0" d="M237.5,369.3c-0.1,0-0.2-0.2-0.1-0.3l0.9-1.7c0-0.1,0.1-0.1,0.2-0.1c0,0,0,0,0,0c1.2,0.6,2.6,0.8,3.9,0.6
c1.6-0.4,2.3-1.4,2.1-2.5c-0.2-1-0.9-1.4-2.8-1.3l-0.7,0.1c-2.6,0.2-4.4-0.7-4.9-2.9c-0.6-2.4,0.8-4.4,3.6-5
c1.5-0.4,3.1-0.3,4.6,0.3c0.1,0,0.1,0.1,0.1,0.2c0,0,0,0,0,0l-0.6,1.7c0,0.1-0.2,0.2-0.3,0.1c0,0,0,0,0,0c-1.1-0.4-2.3-0.5-3.4-0.3
c-1.3,0.3-1.9,1.2-1.7,2.2s1,1.4,2.9,1.2l0.7-0.1c2.6-0.2,4.3,0.6,4.8,2.9s-0.8,4.5-4,5.3C241,370.4,239.1,370.2,237.5,369.3z"></path>
<path class="st0" d="M255.3,359.3c-0.5-1.1-0.8-2.4-0.9-3.6c-0.1-2.2,1.3-4.1,3.4-4.7c1.9-0.7,4-0.2,5.3,1.2c0.1,0.1,0.1,0.2,0,0.3
c0,0,0,0,0,0l-1.3,1.3c-0.1,0.1-0.2,0.1-0.3,0c0,0,0,0,0,0c-0.7-0.9-1.9-1.2-3-0.8c-1.1,0.3-1.8,1.4-1.7,2.5c0.4,2,1,4,2,5.9
c0.6,0.9,1.8,1.3,2.9,0.9c1.1-0.4,1.8-1.4,1.8-2.5c0-0.1,0.1-0.2,0.2-0.2c0,0,0,0,0,0l1.9,0.2c0.1,0,0.2,0.1,0.2,0.2c0,0,0,0,0,0
c-0.1,2-1.5,3.7-3.4,4.3c-2,0.8-4.3,0.2-5.5-1.6C256.1,361.7,255.6,360.5,255.3,359.3z"></path>
<path class="st0" d="M275,355.9c-1.5-2-2.6-4.3-3.2-6.8c-0.2-2.8,2-5.3,4.8-5.5c1.4-0.1,2.8,0.4,3.9,1.4c1.5,2,2.6,4.3,3.2,6.8
c0.2,2.8-2,5.3-4.8,5.5C277.4,357.3,276,356.8,275,355.9z M281.4,352.1c-0.2-1-0.6-2-1.1-2.9c-0.4-1-0.9-1.9-1.5-2.7
c-1.1-1-2.8-1-3.8,0c-0.6,0.6-0.8,1.4-0.8,2.2c0.6,2,1.5,3.9,2.7,5.6c1.1,1,2.8,1,3.8,0C281.2,353.7,281.4,352.9,281.4,352.1
L281.4,352.1z"></path>
<path class="st0" d="M292.8,347.7c-0.1-0.1,0-0.2,0.1-0.3c0,0,0,0,0,0l1.6-1c0.1-0.1,0.2,0,0.3,0.1c0,0,0,0,0,0l1.1,1.9
c0.1,0.1,0.1,0.3,0.1,0.4l-0.6,2.3c0,0.1-0.1,0.2-0.2,0.3c-0.1,0.1-0.2,0-0.3-0.1c0,0,0,0,0,0L292.8,347.7z"></path>
<path class="st0" d="M310,330.8c-0.8-0.9-1.5-2-2-3.1c-0.9-2-0.2-4.3,1.6-5.6c1.5-1.3,3.7-1.6,5.4-0.6c0.1,0,0.1,0.2,0.1,0.2
c0,0,0,0,0,0l-0.8,1.7c0,0.1-0.1,0.1-0.2,0.1c0,0,0,0,0,0c-1-0.6-2.2-0.5-3.1,0.2c-0.9,0.7-1.2,1.9-0.8,2.9c1,1.8,2.4,3.4,3.9,4.8
c0.9,0.7,2.2,0.6,3-0.1c0.9-0.7,1.2-1.9,0.9-3c0-0.1,0-0.2,0.1-0.2c0,0,0,0,0,0l1.8-0.4c0.1,0,0.2,0,0.2,0.1c0,0,0,0,0,0
c0.6,1.9-0.1,4-1.7,5.2c-1.6,1.5-4,1.6-5.8,0.4C311.6,332.7,310.7,331.8,310,330.8z"></path>
<path class="st0" d="M322.6,310.9c-0.1-0.1-0.1-0.2,0-0.3l1.3-1.3c0.1-0.1,0.2-0.1,0.3,0l12.6,6c0.1,0.1,0.1,0.1,0,0.2l-1.4,1.4
c-0.1,0.1-0.2,0.1-0.3,0l-2.5-1.2l-3.6,3.6l1.2,2.5c0.1,0.1,0.1,0.2,0,0.3l-1.4,1.4c-0.1,0.1-0.2,0.1-0.2,0L322.6,310.9z
 M330.7,314.8l-5-2.4l0,0l2.5,5L330.7,314.8z"></path>
<path class="st0" d="M346.9,296.4l-1.3-0.9c-0.1-0.1-0.1-0.2,0-0.3c0,0,0,0,0,0l3.2-4.5c0.1-0.1,0.2-0.1,0.3,0c0,0,0,0,0,0l1.3,0.9
c0.1,0.1,0.1,0.2,0,0.3c0,0,0,0,0,0l-3.2,4.5C347.1,296.5,347,296.5,346.9,296.4C346.9,296.4,346.9,296.4,346.9,296.4z"></path>
<path class="st0" d="M92,46.6l-5.3-6.7c-0.1-0.1-0.1-0.2,0-0.3c0,0,0,0,0,0l1.5-1.2c0.1-0.1,0.2-0.1,0.3,0c0,0,0,0,0,0l5.3,6.8
c1.7,2.2,1.4,5.3-0.8,7c-2.2,1.7-5.3,1.4-7-0.8l-5.3-6.8c-0.1-0.1-0.1-0.2,0-0.3c0,0,0,0,0,0l1.5-1.2c0.1-0.1,0.2-0.1,0.3,0
c0,0,0,0,0,0l5.3,6.7c0.8,1.2,2.4,1.6,3.7,0.8c1.2-0.8,1.6-2.4,0.8-3.7C92.2,46.8,92.1,46.7,92,46.6z"></path>
<path class="st0" d="M108.4,41c-0.1,0.1-0.3,0.1-0.4,0l-4.8-2.4l0,0l0.2,5.4c0,0.1,0,0.3-0.2,0.3l-1.8,1.2c-0.1,0.1-0.2,0-0.2-0.2
l-0.3-7.9l-6.6-3.2c-0.1-0.1-0.2-0.2,0-0.3l1.7-1.1c0.1-0.1,0.3-0.1,0.4,0l4.3,2.1l0,0l-0.2-4.8c0-0.1,0-0.3,0.2-0.3l1.8-1.2
c0.1-0.1,0.2,0,0.2,0.1l0.3,7.3l7.1,3.5c0.1,0.1,0.2,0.2,0,0.3L108.4,41z"></path>
<path class="st0" d="M120.2,29.2l-0.7-1.4c-0.1-0.1,0-0.2,0.1-0.3c0,0,0,0,0,0l4.9-2.4c0.1-0.1,0.2,0,0.3,0.1c0,0,0,0,0,0l0.7,1.4
c0.1,0.1,0,0.2-0.1,0.3c0,0,0,0,0,0l-4.9,2.4C120.4,29.3,120.3,29.3,120.2,29.2C120.2,29.2,120.2,29.2,120.2,29.2z"></path>
<path class="st0" d="M136.7,12.3c0-0.1,0-0.2,0.1-0.2c0,0,0,0,0,0l4.6-1.6c2.2-0.8,4-0.3,5.3,1.4c0.7,1.1,1.2,2.2,1.5,3.5
c0.5,1.2,0.8,2.4,0.9,3.7c0,2.1-1.1,3.6-3.3,4.3l-4.6,1.5c-0.1,0-0.2,0-0.2-0.1c0,0,0,0,0,0L136.7,12.3z M142.7,22.2l1.9-0.6
c1.4-0.5,2.1-1.2,2.1-2.5c-0.1-1-0.3-2-0.7-2.9c-0.2-1-0.6-1.9-1.2-2.7c-0.8-1-1.8-1.2-3.2-0.7l-1.9,0.6c-0.1,0-0.1,0.1-0.1,0.1
c0,0,0,0,0,0l2.9,8.6C142.5,22.2,142.6,22.2,142.7,22.2C142.7,22.2,142.7,22.2,142.7,22.2z"></path>
<path class="st0" d="M153.3,7.1c0-0.1,0-0.2,0.1-0.2c0,0,0,0,0,0l8.3-2c0.1,0,0.2,0,0.2,0.1c0,0,0,0,0,0l0.4,1.7
c0,0.1,0,0.2-0.1,0.2c0,0,0,0,0,0l-6.1,1.4c-0.1,0-0.1,0.1-0.1,0.1c0,0,0,0,0,0l0.8,3.2c0,0.1,0.1,0.1,0.1,0.1c0,0,0,0,0,0l5.1-1.2
c0.1,0,0.2,0,0.2,0.1c0,0,0,0,0,0l0.4,1.7c0,0.1,0,0.2-0.1,0.2c0,0,0,0,0,0l-5.1,1.2c-0.1,0-0.1,0.1-0.1,0.1c0,0,0,0,0,0l0.8,3.3
c0,0.1,0.1,0.1,0.1,0.1c0,0,0,0,0,0l6.1-1.5c0.1,0,0.2,0,0.2,0.1c0,0,0,0,0,0l0.4,1.7c0,0.1,0,0.2-0.1,0.2c0,0,0,0,0,0l-8.3,2
c-0.1,0-0.2,0-0.2-0.1c0,0,0,0,0,0L153.3,7.1z"></path>
<path class="st0" d="M170.4,15.4c-0.1-0.1-0.1-0.2-0.1-0.3l1-1.6c0-0.1,0.2-0.1,0.2-0.1c0,0,0,0,0,0c1.2,0.7,2.5,1,3.9,0.9
c1.6-0.2,2.4-1.2,2.2-2.3c-0.1-1-0.8-1.5-2.7-1.5h-0.7c-2.6,0-4.3-1-4.6-3.2c-0.4-2.4,1.2-4.3,4-4.7c1.6-0.2,3.1,0,4.6,0.7
c0.1,0,0.1,0.1,0.1,0.2c0,0,0,0,0,0l-0.7,1.6c0,0.1-0.2,0.1-0.3,0.1c0,0,0,0,0,0c-1-0.5-2.2-0.7-3.4-0.6c-1.4,0.2-2,1.1-1.9,2.1
s0.9,1.5,2.7,1.5h0.7c2.6,0,4.2,1,4.6,3.3s-1.1,4.4-4.5,4.9C173.8,16.8,172,16.4,170.4,15.4z"></path>
<path class="st0" d="M185.6,1.6c0-0.1,0.1-0.2,0.2-0.2c0,0,0,0,0,0l2-0.1c0.1,0,0.2,0.1,0.2,0.2c0,0,0,0,0,0l1,13.2
c0,0.1-0.1,0.2-0.2,0.2c0,0,0,0,0,0l-2,0.1c-0.1,0-0.2-0.1-0.2-0.2c0,0,0,0,0,0L185.6,1.6z"></path>
<path class="st0" d="M195.1,7.7c-0.1-1.3,0-2.5,0.3-3.8c0.6-2.1,2.6-3.5,4.8-3.4c2-0.2,3.9,1,4.8,2.8c0,0.1,0,0.2-0.1,0.3l-1.7,0.8
c-0.1,0-0.2,0-0.3-0.1c-0.5-1.1-1.6-1.7-2.8-1.6c-1.2-0.1-2.2,0.7-2.5,1.8c-0.2,1-0.3,2.1-0.2,3.1c-0.1,1,0,2.1,0.3,3.1
c0.3,1.1,1.4,1.8,2.6,1.7c1.2,0.1,2.2-0.6,2.6-1.7c0.1-0.6,0.2-1.2,0.1-1.8c0-0.1-0.1-0.1-0.1-0.1c0,0,0,0,0,0h-2.2
c-0.1,0-0.2-0.1-0.2-0.2c0,0,0,0,0,0V7.1c0-0.1,0.1-0.2,0.2-0.2c0,0,0,0,0,0l4.5-0.1c0.1,0,0.2,0.1,0.2,0.2c0,0,0,0,0,0v1.2
c0,1,0,2-0.3,3c-1,2.7-3.9,4.1-6.6,3.1c-1.4-0.5-2.5-1.5-3-2.9C195.2,10.2,195,9,195.1,7.7z"></path>
<path class="st0" d="M212.9,1.3c0-0.1,0.1-0.2,0.2-0.2c0,0,0,0,0,0l1.8,0.2c0.1,0,0.3,0.1,0.3,0.2l4.7,9.8h0.1l0.8-9.4
c0-0.1,0.1-0.2,0.2-0.2c0,0,0,0,0,0l1.7,0.2c0.1,0,0.2,0.1,0.2,0.2c0,0,0,0,0,0l-1.2,13.1c0,0.1-0.1,0.2-0.2,0.2c0,0,0,0,0,0
l-1.8-0.2c-0.1,0-0.3-0.1-0.3-0.2l-4.7-9.8h-0.1l-0.8,9.3c0,0.1-0.1,0.2-0.2,0.2c0,0,0,0,0,0l-1.7-0.2c-0.1,0-0.2-0.1-0.2-0.2
c0,0,0,0,0,0L212.9,1.3z"></path>
<path class="st0" d="M237.2,13.6l0.4-1.6c0-0.1,0.1-0.2,0.2-0.2c0,0,0,0,0,0l5.4,1.2c0.1,0,0.2,0.1,0.2,0.2c0,0,0,0,0,0l-0.4,1.6
c0,0.1-0.1,0.2-0.2,0.2c0,0,0,0,0,0l-5.4-1.2C237.3,13.8,237.2,13.7,237.2,13.6C237.2,13.6,237.2,13.6,237.2,13.6z"></path>
<path class="st0" d="M260.7,10.7c0-0.1,0.1-0.2,0.2-0.1c0,0,0,0,0,0l4.8,1.7c2.7,1,3.5,2.8,2.8,4.9c-0.3,1.2-1.3,2-2.5,2.2l0,0
c0.9,0.9,1.2,2.3,0.7,3.5c-0.9,2.5-3,3.2-5.8,2.2l-4.6-1.7c-0.1,0-0.2-0.1-0.1-0.2c0,0,0,0,0,0L260.7,10.7z M259.2,22.2l2.7,1
c0.9,0.5,2.1,0.1,2.5-0.9s0.1-2.1-0.9-2.5c-0.1-0.1-0.3-0.1-0.4-0.1l-2.7-1c-0.1,0-0.1,0-0.1,0.1c0,0,0,0,0,0l-1.2,3.3
C259.1,22,259.1,22.1,259.2,22.2C259.2,22.2,259.2,22.2,259.2,22.2z M263.8,17.6c0.9,0.4,2,0.1,2.4-0.8s0.1-2-0.8-2.4
c-0.1-0.1-0.2-0.1-0.3-0.1l-2.6-0.9c-0.1,0-0.1,0-0.1,0.1c0,0,0,0,0,0l-1.1,3.1c0,0.1,0,0.1,0.1,0.1c0,0,0,0,0,0L263.8,17.6z"></path>
<path class="st0" d="M279.8,27.8l3.7-7.8c0-0.1,0.1-0.1,0.2-0.1c0,0,0,0,0,0l1.8,0.8c0.1,0,0.1,0.2,0.1,0.2c0,0,0,0,0,0l-3.7,7.8
c-1.2,2.5-4.2,3.6-6.7,2.4c-2.5-1.2-3.6-4.2-2.4-6.7l3.7-7.8c0-0.1,0.1-0.1,0.2-0.1c0,0,0,0,0,0l1.8,0.8c0.1,0,0.1,0.1,0.1,0.2
c0,0,0,0,0,0l-3.6,7.7c-0.7,1.3-0.3,2.9,0.9,3.6s2.9,0.3,3.6-0.9C279.7,28.1,279.7,28,279.8,27.8L279.8,27.8z"></path>
<path class="st0" d="M292.2,24.7c0-0.1,0.2-0.1,0.3-0.1c0,0,0,0,0,0l1.7,1c0.1,0,0.1,0.2,0.1,0.3c0,0,0,0,0,0l-6.5,11.5
c0,0.1-0.2,0.1-0.3,0.1c0,0,0,0,0,0l-1.7-1c-0.1,0-0.1-0.2-0.1-0.3c0,0,0,0,0,0L292.2,24.7z"></path>
<path class="st0" d="M300.7,29.7c0.1-0.1,0.2-0.1,0.3-0.1c0,0,0,0,0,0l1.6,1.1c0.1,0.1,0.1,0.2,0.1,0.3c0,0,0,0,0,0l-6.1,9.3
c0,0-0.1,0.1,0,0.2c0,0,0,0,0,0l5.2,3.4c0.1,0.1,0.1,0.2,0.1,0.3c0,0,0,0,0,0l-1,1.4c-0.1,0.1-0.2,0.1-0.3,0.1c0,0,0,0,0,0l-7.1-4.7
c-0.1-0.1-0.1-0.2-0.1-0.3c0,0,0,0,0,0L300.7,29.7z"></path>
<path class="st0" d="M313.8,38.7c0.1-0.1,0.2-0.1,0.3,0c0,0,0,0,0,0l3.8,3c1.8,1.5,2.4,3.2,1.7,5.2c-0.5,1.1-1.2,2.2-2.1,3.1
c-0.7,1.1-1.6,2-2.6,2.8c-1.7,1.2-3.6,1-5.4-0.5l-3.8-3c-0.1-0.1-0.1-0.2,0-0.3c0,0,0,0,0,0L313.8,38.7z M308.7,49l1.6,1.3
c1.2,0.9,2.2,1.1,3.3,0.4c0.8-0.6,1.5-1.3,2-2.2c0.7-0.7,1.2-1.6,1.6-2.5c0.5-1.2,0-2.2-1.1-3.1l-1.6-1.3c0,0-0.1-0.1-0.2,0
c0,0,0,0,0,0l-5.7,7.1C308.6,48.9,308.6,49,308.7,49C308.7,49,308.7,49,308.7,49z"></path>
</svg>
